<svg width="795" height="832" viewBox="0 0 795 832" fill="none" xmlns="http://www.w3.org/2000/svg">
<rect width="795" height="832" fill="white"/>
<g filter="url(#filter0_d_57_2)">
<circle cx="286" cy="593" r="75" fill="#ED11B6"/>
<circle cx="286" cy="593" r="50" fill="white"/>
<path d="M287.325 579.818V606H282.582V579.818H287.325Z" fill="black"/>
</g>
<g filter="url(#filter1_d_57_2)">
<circle cx="416" cy="696" r="75" fill="#ED1111"/>
<circle cx="416" cy="696" r="50" fill="white"/>
<path d="M425.098 682.818V709H420.879L408.543 691.166H408.325V709H403.582V682.818H407.827L420.151 700.665H420.381V682.818H425.098Z" fill="black"/>
</g>
<g filter="url(#filter2_d_57_2)">
<circle cx="564" cy="597" r="75" fill="#11ED83"/>
<circle cx="564" cy="597" r="50" fill="white"/>
<path d="M570.122 592.179C569.909 591.489 569.615 590.871 569.24 590.325C568.874 589.771 568.43 589.298 567.911 588.906C567.399 588.514 566.811 588.22 566.146 588.024C565.482 587.82 564.757 587.717 563.973 587.717C562.567 587.717 561.314 588.071 560.214 588.778C559.115 589.486 558.25 590.526 557.619 591.898C556.997 593.261 556.686 594.923 556.686 596.884C556.686 598.861 556.997 600.536 557.619 601.908C558.241 603.28 559.107 604.324 560.214 605.04C561.322 605.747 562.609 606.101 564.075 606.101C565.405 606.101 566.555 605.845 567.527 605.334C568.507 604.822 569.261 604.098 569.79 603.161C570.318 602.214 570.582 601.107 570.582 599.837L571.656 600.003H564.548V596.295H575.172V599.44C575.172 601.682 574.695 603.621 573.74 605.257C572.786 606.893 571.473 608.155 569.803 609.041C568.132 609.919 566.214 610.358 564.05 610.358C561.638 610.358 559.52 609.817 557.696 608.734C555.881 607.643 554.462 606.097 553.439 604.094C552.425 602.082 551.918 599.696 551.918 596.935C551.918 594.821 552.216 592.933 552.812 591.271C553.418 589.609 554.261 588.199 555.344 587.04C556.426 585.872 557.696 584.986 559.153 584.381C560.611 583.767 562.196 583.46 563.909 583.46C565.358 583.46 566.709 583.673 567.962 584.099C569.214 584.517 570.327 585.114 571.298 585.889C572.278 586.665 573.084 587.585 573.714 588.651C574.345 589.716 574.759 590.892 574.955 592.179H570.122Z" fill="black"/>
</g>
<g filter="url(#filter3_d_57_2)">
<circle cx="681" cy="728" r="75" fill="#1F67A2"/>
<circle cx="681" cy="727" r="50" fill="white"/>
<path d="M692.977 726.909C692.977 729.73 692.449 732.146 691.392 734.158C690.344 736.161 688.912 737.695 687.097 738.76C685.29 739.825 683.24 740.358 680.947 740.358C678.655 740.358 676.601 739.825 674.786 738.76C672.979 737.686 671.547 736.148 670.49 734.145C669.442 732.134 668.918 729.722 668.918 726.909C668.918 724.088 669.442 721.676 670.49 719.673C671.547 717.662 672.979 716.124 674.786 715.058C676.601 713.993 678.655 713.46 680.947 713.46C683.24 713.46 685.29 713.993 687.097 715.058C688.912 716.124 690.344 717.662 691.392 719.673C692.449 721.676 692.977 724.088 692.977 726.909ZM688.209 726.909C688.209 724.923 687.898 723.249 687.276 721.885C686.662 720.513 685.81 719.477 684.719 718.778C683.628 718.071 682.371 717.717 680.947 717.717C679.524 717.717 678.267 718.071 677.176 718.778C676.085 719.477 675.229 720.513 674.607 721.885C673.993 723.249 673.686 724.923 673.686 726.909C673.686 728.895 673.993 730.574 674.607 731.946C675.229 733.31 676.085 734.345 677.176 735.053C678.267 735.751 679.524 736.101 680.947 736.101C682.371 736.101 683.628 735.751 684.719 735.053C685.81 734.345 686.662 733.31 687.276 731.946C687.898 730.574 688.209 728.895 688.209 726.909Z" fill="black"/>
</g>
<g filter="url(#filter4_d_57_2)">
<circle cx="114" cy="643" r="75" fill="#16DAF0"/>
<circle cx="114" cy="643" r="50" fill="white"/>
<path d="M104.582 656V629.818H114.605C116.497 629.818 118.07 630.116 119.322 630.713C120.584 631.301 121.526 632.107 122.148 633.129C122.778 634.152 123.094 635.311 123.094 636.607C123.094 637.672 122.889 638.584 122.48 639.342C122.071 640.092 121.521 640.702 120.831 641.17C120.141 641.639 119.369 641.976 118.517 642.18V642.436C119.446 642.487 120.337 642.773 121.189 643.293C122.05 643.804 122.753 644.528 123.298 645.466C123.844 646.403 124.116 647.537 124.116 648.866C124.116 650.222 123.788 651.44 123.132 652.523C122.476 653.597 121.487 654.445 120.166 655.067C118.845 655.689 117.183 656 115.18 656H104.582ZM109.325 652.037H114.426C116.148 652.037 117.388 651.709 118.146 651.053C118.913 650.388 119.297 649.536 119.297 648.496C119.297 647.72 119.105 647.021 118.722 646.399C118.338 645.768 117.793 645.274 117.085 644.916C116.378 644.55 115.534 644.366 114.554 644.366H109.325V652.037ZM109.325 640.953H114.017C114.835 640.953 115.572 640.804 116.229 640.506C116.885 640.199 117.401 639.768 117.776 639.214C118.159 638.652 118.351 637.987 118.351 637.22C118.351 636.206 117.993 635.371 117.277 634.714C116.57 634.058 115.517 633.73 114.119 633.73H109.325V640.953Z" fill="black"/>
</g>
<g filter="url(#filter5_i_57_2)">
<ellipse cx="414" cy="397" rx="42.9995" ry="42" fill="#EFFA21"/>
<ellipse cx="413.999" cy="397" rx="28.6663" ry="28" fill="white"/>
<path d="M408.783 403.879C407.713 403.879 406.802 403.588 406.049 403.005C405.296 402.418 404.721 401.568 404.323 400.455C403.925 399.338 403.726 397.989 403.726 396.407C403.726 394.835 403.925 393.493 404.323 392.38C404.725 391.263 405.303 390.411 406.056 389.823C406.814 389.232 407.723 388.936 408.783 388.936C409.844 388.936 410.751 389.232 411.503 389.823C412.261 390.411 412.839 391.263 413.236 392.38C413.639 393.493 413.84 394.835 413.84 396.407C413.84 397.989 413.641 399.338 413.243 400.455C412.846 401.568 412.27 402.418 411.518 403.005C410.765 403.588 409.853 403.879 408.783 403.879ZM408.783 402.316C409.844 402.316 410.668 401.805 411.255 400.782C411.842 399.759 412.135 398.301 412.135 396.407C412.135 395.148 412.001 394.075 411.731 393.19C411.465 392.304 411.082 391.63 410.58 391.166C410.083 390.702 409.484 390.47 408.783 390.47C407.732 390.47 406.911 390.988 406.319 392.025C405.727 393.057 405.431 394.518 405.431 396.407C405.431 397.667 405.564 398.737 405.829 399.617C406.094 400.498 406.475 401.168 406.972 401.627C407.474 402.087 408.078 402.316 408.783 402.316ZM421.653 389.134V403.68H419.891V390.981H419.806L416.255 393.339V391.549L419.891 389.134H421.653Z" fill="black"/>
</g>
<g filter="url(#filter6_i_57_2)">
<ellipse cx="360" cy="439" rx="42.9995" ry="42" fill="#D608D3"/>
<ellipse cx="359.999" cy="439" rx="28.6663" ry="28" fill="white"/>
<path d="M354.954 445.879C354.016 445.879 353.18 445.718 352.447 445.396C351.717 445.074 351.137 444.626 350.706 444.054C350.28 443.476 350.048 442.806 350.01 442.044H351.8C351.838 442.512 351.999 442.917 352.283 443.258C352.567 443.594 352.939 443.855 353.398 444.039C353.858 444.224 354.367 444.316 354.925 444.316C355.55 444.316 356.104 444.207 356.587 443.99C357.07 443.772 357.449 443.469 357.724 443.08C357.998 442.692 358.135 442.242 358.135 441.731C358.135 441.196 358.003 440.725 357.738 440.318C357.473 439.906 357.084 439.584 356.573 439.352C356.062 439.12 355.437 439.004 354.698 439.004H353.533V437.441H354.698C355.276 437.441 355.782 437.337 356.218 437.129C356.658 436.92 357.001 436.627 357.248 436.248C357.499 435.869 357.624 435.424 357.624 434.913C357.624 434.42 357.515 433.992 357.297 433.627C357.08 433.263 356.772 432.979 356.374 432.775C355.981 432.572 355.517 432.47 354.982 432.47C354.48 432.47 354.007 432.562 353.562 432.747C353.121 432.927 352.761 433.189 352.482 433.535C352.203 433.876 352.051 434.288 352.028 434.771H350.323C350.351 434.009 350.581 433.341 351.012 432.768C351.443 432.19 352.006 431.741 352.702 431.419C353.403 431.097 354.172 430.936 355.01 430.936C355.91 430.936 356.682 431.118 357.326 431.482C357.97 431.842 358.465 432.318 358.81 432.91C359.156 433.502 359.329 434.141 359.329 434.828C359.329 435.647 359.113 436.345 358.682 436.923C358.256 437.5 357.676 437.901 356.942 438.123V438.237C357.861 438.388 358.578 438.779 359.094 439.409C359.61 440.034 359.868 440.808 359.868 441.731C359.868 442.522 359.653 443.232 359.222 443.862C358.796 444.487 358.214 444.979 357.475 445.339C356.736 445.699 355.896 445.879 354.954 445.879ZM367.887 431.134V445.68H366.126V432.981H366.04L362.489 435.339V433.549L366.126 431.134H367.887Z" fill="black"/>
</g>
<g filter="url(#filter7_i_57_2)">
<ellipse cx="458" cy="439" rx="42.9995" ry="42" fill="#FA6D21"/>
<ellipse cx="457.999" cy="439" rx="28.6663" ry="28" fill="white"/>
<path d="M448.039 445.68V444.402L452.84 439.146C453.403 438.53 453.867 437.995 454.232 437.541C454.597 437.081 454.867 436.651 455.042 436.248C455.222 435.841 455.312 435.415 455.312 434.97C455.312 434.458 455.189 434.016 454.942 433.642C454.701 433.268 454.369 432.979 453.948 432.775C453.527 432.572 453.053 432.47 452.528 432.47C451.969 432.47 451.481 432.586 451.064 432.818C450.653 433.045 450.333 433.365 450.106 433.777C449.883 434.188 449.772 434.671 449.772 435.225H448.096C448.096 434.373 448.292 433.625 448.685 432.981C449.078 432.337 449.613 431.835 450.29 431.475C450.972 431.116 451.737 430.936 452.584 430.936C453.437 430.936 454.192 431.116 454.85 431.475C455.508 431.835 456.024 432.321 456.398 432.931C456.772 433.542 456.959 434.222 456.959 434.97C456.959 435.505 456.862 436.028 456.668 436.539C456.479 437.046 456.147 437.612 455.674 438.237C455.205 438.857 454.554 439.615 453.721 440.509L450.454 444.004V444.117H457.215V445.68H448.039ZM465.262 431.134V445.68H463.501V432.981H463.415L459.864 435.339V433.549L463.501 431.134H465.262Z" fill="black"/>
</g>
<g filter="url(#filter8_i_57_2)">
<ellipse cx="403" cy="446" rx="42.9995" ry="42" fill="#30FA21"/>
<ellipse cx="402.999" cy="446" rx="28.6663" ry="28" fill="white"/>
<path d="M398.153 438.134V452.68H396.391V439.981H396.306L392.755 442.339V440.549L396.391 438.134H398.153ZM407.449 438.134V452.68H405.688V439.981H405.603L402.052 442.339V440.549L405.688 438.134H407.449Z" fill="black"/>
</g>
<path d="M608 295.5C608 402.854 519.419 490 410 490C300.581 490 212 402.854 212 295.5C212 188.146 300.581 101 410 101C519.419 101 608 188.146 608 295.5Z" stroke="black" stroke-width="8"/>
<path d="M524 295.5C524 349.715 510.818 398.603 489.715 433.804C468.564 469.085 439.902 490 409 490C378.098 490 349.436 469.085 328.285 433.804C307.182 398.603 294 349.715 294 295.5C294 241.285 307.182 192.397 328.285 157.196C349.436 121.915 378.098 101 409 101C439.902 101 468.564 121.915 489.715 157.196C510.818 192.397 524 241.285 524 295.5Z" stroke="black" stroke-width="8"/>
<path d="M454 295.5C454 350.103 448.868 399.411 440.63 434.958C436.504 452.763 431.648 466.895 426.397 476.479C423.771 481.272 421.146 484.741 418.623 486.969C416.125 489.174 413.928 490 412 490C410.072 490 407.875 489.174 405.377 486.969C402.854 484.741 400.229 481.272 397.603 476.479C392.352 466.895 387.496 452.763 383.37 434.958C375.132 399.411 370 350.103 370 295.5C370 240.897 375.132 191.589 383.37 156.042C387.496 138.237 392.352 124.105 397.603 114.521C400.229 109.728 402.854 106.259 405.377 104.031C407.875 101.826 410.072 101 412 101C413.928 101 416.125 101.826 418.623 104.031C421.146 106.259 423.771 109.728 426.397 114.521C431.648 124.105 436.504 138.237 440.63 156.042C448.868 191.589 454 240.897 454 295.5Z" stroke="black" stroke-width="8"/>
<rect x="366" y="488" width="92" height="25" fill="black"/>
<path d="M604.821 288.756C606.237 289.638 606.746 290.237 606.922 290.5C606.746 290.763 606.237 291.362 604.821 292.244C602.599 293.629 599.061 295.109 594.129 296.596C584.323 299.552 569.933 302.266 551.915 304.563C515.937 309.151 466.114 312 411 312C355.886 312 306.063 309.151 270.085 304.563C252.067 302.266 237.677 299.552 227.871 296.596C222.939 295.109 219.401 293.629 217.179 292.244C215.763 291.362 215.254 290.763 215.078 290.5C215.254 290.237 215.763 289.638 217.179 288.756C219.401 287.371 222.939 285.891 227.871 284.404C237.677 281.448 252.067 278.734 270.085 276.437C306.063 271.849 355.886 269 411 269C466.114 269 515.937 271.849 551.915 276.437C569.933 278.734 584.323 281.448 594.129 284.404C599.061 285.891 602.599 287.371 604.821 288.756Z" stroke="black" stroke-width="8"/>
<defs>
<filter id="filter0_d_57_2" x="207" y="518" width="158" height="158" filterUnits="userSpaceOnUse" color-interpolation-filters="sRGB">
<feFlood flood-opacity="0" result="BackgroundImageFix"/>
<feColorMatrix in="SourceAlpha" type="matrix" values="0 0 0 0 0 0 0 0 0 0 0 0 0 0 0 0 0 0 127 0" result="hardAlpha"/>
<feOffset dy="4"/>
<feGaussianBlur stdDeviation="2"/>
<feComposite in2="hardAlpha" operator="out"/>
<feColorMatrix type="matrix" values="0 0 0 0 0 0 0 0 0 0 0 0 0 0 0 0 0 0 0.25 0"/>
<feBlend mode="normal" in2="BackgroundImageFix" result="effect1_dropShadow_57_2"/>
<feBlend mode="normal" in="SourceGraphic" in2="effect1_dropShadow_57_2" result="shape"/>
</filter>
<filter id="filter1_d_57_2" x="337" y="621" width="158" height="158" filterUnits="userSpaceOnUse" color-interpolation-filters="sRGB">
<feFlood flood-opacity="0" result="BackgroundImageFix"/>
<feColorMatrix in="SourceAlpha" type="matrix" values="0 0 0 0 0 0 0 0 0 0 0 0 0 0 0 0 0 0 127 0" result="hardAlpha"/>
<feOffset dy="4"/>
<feGaussianBlur stdDeviation="2"/>
<feComposite in2="hardAlpha" operator="out"/>
<feColorMatrix type="matrix" values="0 0 0 0 0 0 0 0 0 0 0 0 0 0 0 0 0 0 0.25 0"/>
<feBlend mode="normal" in2="BackgroundImageFix" result="effect1_dropShadow_57_2"/>
<feBlend mode="normal" in="SourceGraphic" in2="effect1_dropShadow_57_2" result="shape"/>
</filter>
<filter id="filter2_d_57_2" x="485" y="522" width="158" height="158" filterUnits="userSpaceOnUse" color-interpolation-filters="sRGB">
<feFlood flood-opacity="0" result="BackgroundImageFix"/>
<feColorMatrix in="SourceAlpha" type="matrix" values="0 0 0 0 0 0 0 0 0 0 0 0 0 0 0 0 0 0 127 0" result="hardAlpha"/>
<feOffset dy="4"/>
<feGaussianBlur stdDeviation="2"/>
<feComposite in2="hardAlpha" operator="out"/>
<feColorMatrix type="matrix" values="0 0 0 0 0 0 0 0 0 0 0 0 0 0 0 0 0 0 0.25 0"/>
<feBlend mode="normal" in2="BackgroundImageFix" result="effect1_dropShadow_57_2"/>
<feBlend mode="normal" in="SourceGraphic" in2="effect1_dropShadow_57_2" result="shape"/>
</filter>
<filter id="filter3_d_57_2" x="602" y="653" width="158" height="158" filterUnits="userSpaceOnUse" color-interpolation-filters="sRGB">
<feFlood flood-opacity="0" result="BackgroundImageFix"/>
<feColorMatrix in="SourceAlpha" type="matrix" values="0 0 0 0 0 0 0 0 0 0 0 0 0 0 0 0 0 0 127 0" result="hardAlpha"/>
<feOffset dy="4"/>
<feGaussianBlur stdDeviation="2"/>
<feComposite in2="hardAlpha" operator="out"/>
<feColorMatrix type="matrix" values="0 0 0 0 0 0 0 0 0 0 0 0 0 0 0 0 0 0 0.25 0"/>
<feBlend mode="normal" in2="BackgroundImageFix" result="effect1_dropShadow_57_2"/>
<feBlend mode="normal" in="SourceGraphic" in2="effect1_dropShadow_57_2" result="shape"/>
</filter>
<filter id="filter4_d_57_2" x="35" y="568" width="158" height="158" filterUnits="userSpaceOnUse" color-interpolation-filters="sRGB">
<feFlood flood-opacity="0" result="BackgroundImageFix"/>
<feColorMatrix in="SourceAlpha" type="matrix" values="0 0 0 0 0 0 0 0 0 0 0 0 0 0 0 0 0 0 127 0" result="hardAlpha"/>
<feOffset dy="4"/>
<feGaussianBlur stdDeviation="2"/>
<feComposite in2="hardAlpha" operator="out"/>
<feColorMatrix type="matrix" values="0 0 0 0 0 0 0 0 0 0 0 0 0 0 0 0 0 0 0.25 0"/>
<feBlend mode="normal" in2="BackgroundImageFix" result="effect1_dropShadow_57_2"/>
<feBlend mode="normal" in="SourceGraphic" in2="effect1_dropShadow_57_2" result="shape"/>
</filter>
<filter id="filter5_i_57_2" x="371" y="355" width="85.999" height="88" filterUnits="userSpaceOnUse" color-interpolation-filters="sRGB">
<feFlood flood-opacity="0" result="BackgroundImageFix"/>
<feBlend mode="normal" in="SourceGraphic" in2="BackgroundImageFix" result="shape"/>
<feColorMatrix in="SourceAlpha" type="matrix" values="0 0 0 0 0 0 0 0 0 0 0 0 0 0 0 0 0 0 127 0" result="hardAlpha"/>
<feOffset dy="4"/>
<feGaussianBlur stdDeviation="2"/>
<feComposite in2="hardAlpha" operator="arithmetic" k2="-1" k3="1"/>
<feColorMatrix type="matrix" values="0 0 0 0 0 0 0 0 0 0 0 0 0 0 0 0 0 0 0.25 0"/>
<feBlend mode="normal" in2="shape" result="effect1_innerShadow_57_2"/>
</filter>
<filter id="filter6_i_57_2" x="317" y="397" width="85.999" height="88" filterUnits="userSpaceOnUse" color-interpolation-filters="sRGB">
<feFlood flood-opacity="0" result="BackgroundImageFix"/>
<feBlend mode="normal" in="SourceGraphic" in2="BackgroundImageFix" result="shape"/>
<feColorMatrix in="SourceAlpha" type="matrix" values="0 0 0 0 0 0 0 0 0 0 0 0 0 0 0 0 0 0 127 0" result="hardAlpha"/>
<feOffset dy="4"/>
<feGaussianBlur stdDeviation="2"/>
<feComposite in2="hardAlpha" operator="arithmetic" k2="-1" k3="1"/>
<feColorMatrix type="matrix" values="0 0 0 0 0 0 0 0 0 0 0 0 0 0 0 0 0 0 0.25 0"/>
<feBlend mode="normal" in2="shape" result="effect1_innerShadow_57_2"/>
</filter>
<filter id="filter7_i_57_2" x="415" y="397" width="85.999" height="88" filterUnits="userSpaceOnUse" color-interpolation-filters="sRGB">
<feFlood flood-opacity="0" result="BackgroundImageFix"/>
<feBlend mode="normal" in="SourceGraphic" in2="BackgroundImageFix" result="shape"/>
<feColorMatrix in="SourceAlpha" type="matrix" values="0 0 0 0 0 0 0 0 0 0 0 0 0 0 0 0 0 0 127 0" result="hardAlpha"/>
<feOffset dy="4"/>
<feGaussianBlur stdDeviation="2"/>
<feComposite in2="hardAlpha" operator="arithmetic" k2="-1" k3="1"/>
<feColorMatrix type="matrix" values="0 0 0 0 0 0 0 0 0 0 0 0 0 0 0 0 0 0 0.25 0"/>
<feBlend mode="normal" in2="shape" result="effect1_innerShadow_57_2"/>
</filter>
<filter id="filter8_i_57_2" x="360" y="404" width="85.999" height="88" filterUnits="userSpaceOnUse" color-interpolation-filters="sRGB">
<feFlood flood-opacity="0" result="BackgroundImageFix"/>
<feBlend mode="normal" in="SourceGraphic" in2="BackgroundImageFix" result="shape"/>
<feColorMatrix in="SourceAlpha" type="matrix" values="0 0 0 0 0 0 0 0 0 0 0 0 0 0 0 0 0 0 127 0" result="hardAlpha"/>
<feOffset dy="4"/>
<feGaussianBlur stdDeviation="2"/>
<feComposite in2="hardAlpha" operator="arithmetic" k2="-1" k3="1"/>
<feColorMatrix type="matrix" values="0 0 0 0 0 0 0 0 0 0 0 0 0 0 0 0 0 0 0.25 0"/>
<feBlend mode="normal" in2="shape" result="effect1_innerShadow_57_2"/>
</filter>
</defs>
</svg>
